HIERARCHY
ROOT Hips
{
  OFFSET -102.467 93.6631 130.069
  CHANNELS 6 Xposition Yposition Zposition Zrotation Xrotation Yrotation
  JOINT LeftUpLeg
  {
    OFFSET 8.64259 1.95398 -2.38835
    CHANNELS 3 Zrotation Xrotation Yrotation
    JOINT LeftLeg
    {
      OFFSET 43.7702 0 0
      CHANNELS 3 Zrotation Xrotation Yrotation
      JOINT LeftFoot
      {
        OFFSET 40.6238 0 0
        CHANNELS 3 Zrotation Xrotation Yrotation
        JOINT LeftToeBase
        {
          OFFSET 12.7242 0 0
          CHANNELS 3 Zrotation Xrotation Yrotation
          End Site
          {
            OFFSET 0 0 0
          }
        }
      }
    }
  }
  JOINT RightUpLeg
  {
    OFFSET -8.2249 1.95398 -2.59336
    CHANNELS 3 Zrotation Xrotation Yrotation
    JOINT RightLeg
    {
      OFFSET 43.5653 0 0
      CHANNELS 3 Zrotation Xrotation Yrotation
      JOINT RightFoot
      {
        OFFSET 40.6238 0 0
        CHANNELS 3 Zrotation Xrotation Yrotation
        JOINT RightToeBase
        {
          OFFSET 12.7242 0 0
          CHANNELS 3 Zrotation Xrotation Yrotation
          End Site
          {
            OFFSET 0 0 0
          }
        }
      }
    }
  }
  JOINT Spine
  {
    OFFSET 0.165834 0.87714 6.61349
    CHANNELS 3 Zrotation Xrotation Yrotation
    JOINT Spine1
    {
      OFFSET 7.38963 1.71661e-005 0
      CHANNELS 3 Zrotation Xrotation Yrotation
      JOINT Spine2
      {
        OFFSET 11.9445 1.14441e-005 0
        CHANNELS 3 Zrotation Xrotation Yrotation
        JOINT Spine3
        {
          OFFSET 14.7254 4.19617e-005 0
          CHANNELS 3 Zrotation Xrotation Yrotation
          JOINT Spine4
          {
            OFFSET 10.9679 0 0
            CHANNELS 3 Zrotation Xrotation Yrotation
            JOINT RightShoulder
            {
              OFFSET 2.46616 -1.6653 3.69651
              CHANNELS 3 Zrotation Xrotation Yrotation
              JOINT RightArm
              {
                OFFSET 13.0012 0 0
                CHANNELS 3 Zrotation Xrotation Yrotation
                JOINT RightForeArm
                {
                  OFFSET 28.7848 1.52588e-005 0
                  CHANNELS 3 Zrotation Xrotation Yrotation
                  JOINT RightHand
                  {
                    OFFSET 26.5688 1.52588e-005 0
                    CHANNELS 3 Zrotation Xrotation Yrotation
                    End Site
                    {
                      OFFSET 0 0 0
                    }
                  }
                }
              }
            }
            JOINT LeftShoulder
            {
              OFFSET 2.38034 -1.29275 -3.7523
              CHANNELS 3 Zrotation Xrotation Yrotation
              JOINT LeftArm
              {
                OFFSET 16.3182 6.10351e-005 0
                CHANNELS 3 Zrotation Xrotation Yrotation
                JOINT LeftForeArm
                {
                  OFFSET 27.0901 0 0
                  CHANNELS 3 Zrotation Xrotation Yrotation
                  JOINT LeftHand
                  {
                    OFFSET 24.5451 1.52588e-005 0
                    CHANNELS 3 Zrotation Xrotation Yrotation
                    End Site
                    {
                      OFFSET 0 0 0
                    }
                  }
                }
              }
            }
            JOINT Neck
            {
              OFFSET 5.0226 -0.0266342 0
              CHANNELS 3 Zrotation Xrotation Yrotation
              JOINT Head
              {
                OFFSET 6.69363 2.86102e-005 0
                CHANNELS 3 Zrotation Xrotation Yrotation
                End Site
                {
                  OFFSET 0 0 0
                }
              }
            }
          }
        }
      }
    }
  }
}
MOTION
Frames:	14
Frame Time:	0.0416667
-307.247 63.8434 349.021 152.786 -27.7286 108.167 147.295 55.9402 9.96858 -88.8991 34.5286 -15.2151 -3.94863 -32.0673 -6.38843 142.559 -5.12328 9.76728 169.703 33.7787 -26.0951 -104.311 -36.1375 -0.0071818 63.4506 7.38185 1.26049 -110.576 0.956689 27.7388 -11.6616 6.33431 -82.0591 15.7892 -19.0996 18.9658 4.10785 -18.2629 19.7706 -19.0324 -23.8526 12.2832 0.980288 -23.8526 12.2832 36.4806 -49.3557 -173.079 4.89983 23.6424 98.1623 149.285 -31.4706 -43.514 3.42869 -2.32179 -64.1604 -134.357 -68.9016 29.689 -21.7907 -1.44158 23.0169 -0.338408 13.8547 -0.0012258 39.7837 -11.1933 -32.6806 -72.1287 -10.448 15.1195 74.4841 5.61975 10.7797 
-307.324 63.9254 349.109 152.54 -27.6913 108.334 146.943 55.7799 10.3728 -88.8852 34.6055 -15.0344 -4.57447 -32.1426 -6.90387 142.709 -5.45779 9.58943 168.693 33.6867 -25.3632 -104.037 -36.1541 0.4817 65.8766 5.82999 1.45886 -111.261 -2.06002 29.3653 -11.6778 6.35397 -82.1027 15.7505 -19.1577 18.8759 4.07144 -18.3246 19.6838 -19.0853 -23.8813 12.1752 0.927404 -23.8813 12.1752 36.4613 -49.3564 -173.102 4.80619 23.5672 98.1995 149.39 -31.3884 -43.4365 3.43737 -2.32243 -64.069 -134.336 -68.9138 29.7181 -21.8223 -1.12724 22.8184 -0.518084 14.2861 -0.00122812 40.4599 -11.3347 -32.5524 -72.1268 -10.2701 14.9863 74.6411 6.02093 11.1383 
-307.569 64.12 349.377 151.837 -27.6007 108.825 145.978 55.3134 11.5192 -88.9134 34.8981 -14.5156 -6.27821 -32.4063 -8.35076 143.109 -6.43692 9.07208 165.732 33.3785 -23.1984 -103.094 -36.2156 1.89031 72.6842 1.55438 2.32942 -111.83 -11.7843 34.6304 -11.7228 6.41033 -82.2295 15.6388 -19.322 18.6134 3.96613 -18.4997 19.4305 -19.2377 -23.9604 11.8616 0.774941 -23.9604 11.8616 36.4027 -49.3547 -173.168 4.53814 23.3495 98.3043 149.696 -31.1465 -43.2134 3.46205 -2.32395 -63.8039 -134.275 -68.9488 29.8046 -21.9065 -0.216889 22.2492 -1.03704 15.5461 -0.00161191 42.3878 -11.7038 -32.1188 -72.1133 -9.75047 14.6042 75.0816 7.1933 12.1808 
-308.023 64.2952 349.838 150.748 -27.5138 109.624 144.636 54.5778 13.249 -89.5565 34.2648 -13.493 -8.57228 -31.6328 -10.2853 143.658 -8.02069 8.24335 161.135 32.7257 -19.7347 -101.186 -36.3231 4.10179 82.5712 -4.29589 4.39897 -106.202 -29.8559 46.7263 -11.7877 6.49792 -82.4323 15.4621 -19.5701 18.1915 3.79963 -18.7651 19.0226 -19.4768 -24.0718 11.363 0.535867 -24.0718 11.363 36.3187 -49.3439 -173.268 4.11807 23.0018 98.4639 150.187 -30.7484 -42.86 3.49915 -2.32475 -63.3788 -134.172 -69.0038 29.9495 -22.0199 1.24777 21.3537 -1.8686 17.5885 -0.00317975 45.3769 -12.1593 -31.238 -72.0684 -8.91119 14.0124 75.7339 9.08472 13.8427 
-308.714 64.3272 350.494 149.38 -27.5158 110.72 143.237 53.6287 15.3523 -90.5115 34.2683 -12.3057 -11.1819 -31.3947 -12.6793 144.229 -10.14 7.14294 155.796 31.5443 -15.3856 -98.2032 -36.3681 6.95529 93.4633 -10.0097 7.67993 -72.5832 -49.8383 83.4758 -11.8594 6.60953 -82.702 15.2316 -19.8696 17.6265 3.58209 -19.0879 18.4749 -19.785 -24.1896 10.7067 0.227647 -24.1896 10.7067 36.2254 -49.3147 -173.391 3.57015 22.5367 98.6642 150.852 -30.1937 -42.392 3.5432 -2.32219 -62.8068 -134.02 -69.076 30.1564 -22.1308 3.23333 20.1781 -2.99056 20.3331 -0.00524266 49.1636 -12.4903 -29.7391 -71.9643 -7.77457 13.2629 76.4975 11.6338 16.0486 
-309.624 64.2033 351.322 147.877 -27.7101 112.104 142.047 52.5213 17.647 -91.8729 34.4503 -10.9684 -13.9213 -31.2494 -15.3226 144.698 -12.6866 5.82028 150.855 29.8161 -10.7816 -94.4684 -36.2384 10.1926 103.312 -14.3588 11.4476 -16.6034 -20.0605 116.928 -11.9218 6.73641 -83.0268 14.9605 -20.1804 16.9396 3.32576 -19.427 17.8066 -20.1407 -24.2815 9.92768 -0.128044 -24.2815 9.92769 36.1405 -49.2553 -173.527 2.91847 21.9666 98.891 151.676 -29.4799 -41.8256 3.58716 -2.31274 -62.1002 -133.816 -69.1633 30.4299 -22.2009 5.70903 18.7664 -4.38053 23.6176 -0.00767181 53.394 -12.4568 -27.5188 -71.7713 -6.36471 12.4135 77.2493 14.7632 18.7269 
-310.714 63.9969 352.294 146.424 -28.2151 113.774 141.249 51.3093 20.0051 -93.4566 34.5482 -9.58931 -16.7261 -30.997 -18.0718 144.964 -15.52 4.32788 147.111 27.786 -6.39502 -90.5638 -35.8873 13.4551 110.962 -17.1549 14.8742 33.5614 -0.558013 5.46625 -11.9557 6.86857 -83.3921 14.6649 -20.4548 16.1583 3.04554 -19.734 17.0428 -20.5179 -24.3102 9.06982 -0.505259 -24.3102 9.06982 36.0833 -49.1523 -173.664 2.1868 21.3033 99.1309 152.646 -28.6049 -41.179 3.62224 -2.29222 -61.2716 -133.553 -69.2645 30.7757 -22.1864 8.63834 17.1588 -6.00921 27.1705 -0.0104911 57.6254 -11.8578 -24.6155 -71.4624 -4.71047 11.5241 77.8546 18.3742 21.816 
-311.953 63.7811 353.398 145.247 -29.1526 115.745 140.993 50.0605 22.3309 -94.9917 34.5378 -8.34863 -19.5613 -30.6661 -20.8286 144.961 -18.4835 2.71697 144.846 25.8556 -2.42383 -86.9884 -35.4002 16.3336 116.289 -18.8201 17.5542 27.4081 -2.10009 -15.1379 -11.9403 6.99608 -83.7812 14.3625 -20.6414 15.3147 2.75743 -19.956 16.2128 -20.8887 -24.2365 8.18318 -0.876091 -24.2365 8.18318 36.0747 -48.9906 -173.79 1.39826 20.5587 99.3715 153.744 -27.5706 -40.4731 3.63777 -2.25595 -60.3345 -133.227 -69.38 31.1989 -22.0402 11.9701 15.388 -7.83206 30.6239 -0.0137022 61.3942 -10.6221 -21.2296 -71.0172 -2.84734 10.6548 78.1816 22.3459 25.2654 
-313.325 63.5908 354.626 144.573 -30.6007 118.051 141.388 48.8514 24.5569 -96.2896 34.4298 -7.41824 -22.3628 -30.2942 -23.4982 144.665 -21.4311 1.03228 144.007 24.3961 1.12146 -84.012 -34.9273 18.4934 119.701 -19.815 19.4748 23.8296 -0.904735 -17.0228 -11.8596 7.11173 -84.1778 14.0674 -20.6986 14.4414 2.47442 -20.0501 15.3469 -21.2308 -24.0307 7.31439 -1.2181 -24.0307 7.31439 36.1357 -48.754 -173.894 0.574264 19.7448 99.6024 154.942 -26.3879 -39.7326 3.62236 -2.19959 -59.3048 -132.835 -69.5114 31.7046 -21.7126 15.6338 13.4749 -9.78503 33.602 -0.0175977 64.3567 -8.85589 -17.649 -70.4255 -0.814436 9.85984 78.1116 26.5422 29.0444 
-314.821 63.4358 355.969 144.607 -32.5536 120.738 142.471 47.7488 26.6338 -97.2431 34.254 -6.92828 -25.0613 -29.9214 -26.0049 144.088 -24.2468 -0.68871 144.396 23.6431 4.28019 -81.7192 -34.6022 19.745 121.657 -20.4315 20.7637 21.034 0.0758012 -18.3552 -11.7067 7.21224 -84.5664 13.7887 -20.605 13.5703 2.20462 -19.9937 14.4757 -21.5307 -23.682 6.50234 -1.51809 -23.682 6.50233 36.2862 -48.4269 -173.967 -0.266333 18.8728 99.8146 156.204 -25.0818 -38.9851 3.56578 -2.11998 -58.2008 -132.374 -69.6613 32.2963 -21.1517 19.5386 11.4237 -11.7884 35.8208 -0.021771 66.3711 -6.777 -14.1327 -69.6884 1.35032 9.18439 77.544 30.8249 33.1453 
-316.521 63.2893 357.38 147.78 -33.8402 124.24 144.866 46.1055 26.6301 -96.8816 34.3884 -8.25058 -27.6887 -29.6462 -28.3937 143.28 -26.8319 -2.39834 145.935 23.6548 4.961 -81.3283 -35.2662 18.3282 122.646 -20.9002 21.5076 18.8371 0.920637 -19.0891 -11.4943 7.22751 -84.6147 13.4674 -20.2331 13.2598 1.87908 -19.6361 14.1488 -21.7994 -23.2347 6.33119 -1.7868 -23.2347 6.33117 36.5442 -47.9944 -173.998 -1.1067 17.9543 100.001 157.483 -23.6974 -38.2615 3.46148 -2.01661 -57.0453 -131.844 -69.833 32.9755 -20.3058 23.5695 9.22137 -13.7505 37.1283 -0.0257696 67.4785 -4.62465 -10.8596 -69.6563 3.17375 8.62107 62.8418 36.1649 40.5458 
-316.954 63.5811 359.451 116.577 -51.6691 117.966 133.718 49.7101 56.9403 -107.672 28.4423 7.75219 -28.7867 -28.5931 -29.1076 142.039 -29.3518 -4.28129 145.788 21.7158 36.1878 -66.9414 -24.1191 39.1835 121.182 -20.0607 22.7672 17.453 1.46664 -19.5756 -11.0367 7.0471 -88.97 13.9915 -21.3837 5.20357 2.49553 -21.132 6.18016 -21.5741 -21.912 -1.79411 -1.56142 -21.912 -1.79412 36.9247 -47.4428 -173.983 -1.93192 17.0009 100.156 158.715 -22.3064 -37.5946 3.31065 -1.89326 -55.8663 -131.249 -70.0312 33.741 -19.1264 27.5857 6.84002 -15.5741 37.5131 -0.0290417 67.8369 -2.5927 -7.9291 -57.2071 11.6486 8.96972 -122.899 17.6225 10.2847 
-318.615 63.5887 361.16 115.343 -58.8465 120.127 135.692 49.1171 61.5477 -108.637 27.3326 8.65818 -30.6289 -28.5545 -30.6829 140.838 -31.4312 -5.96524 147.56 23.6341 42.6809 -65.4014 -23.7025 38.8741 120.358 -20.2549 22.628 16.0718 2.03327 -19.8758 -10.5366 6.79166 -89.64 13.8508 -20.7243 3.46837 2.34649 -20.5508 4.41632 -21.5782 -20.7638 -3.21166 -1.56558 -20.7638 -3.21166 37.4369 -46.7615 -173.919 -2.72963 16.0234 100.276 159.824 -21.0036 -37.0151 3.12656 -1.75912 -54.6955 -130.598 -70.2622 34.5872 -17.5753 31.4307 4.24227 -17.1721 37.0861 -0.0316614 67.642 -0.796238 -5.37747 -53.4641 13.3346 9.32746 -89.581 11.1524 3.64009 
-320.599 63.5439 362.805 125.125 -62.6518 128.281 141.352 49.3877 59.84 -107.481 27.7671 5.77843 -32.4687 -28.8082 -32.3028 139.602 -33.1772 -7.52549 149.911 27.462 42.9568 -66.1288 -25.8782 33.9057 119.378 -20.4607 22.251 14.8863 2.53042 -20.0058 -10.0306 6.88391 -89.5683 13.6146 -19.6934 3.41466 2.09288 -19.5234 4.3114 -21.6918 -19.7709 -2.91112 -1.67912 -19.7709 -2.91112 38.0833 -45.944 -173.808 -3.49046 15.0308 100.359 160.741 -19.8902 -36.5467 2.93463 -1.62792 -53.5628 -129.9 -70.5337 35.5046 -15.6351 34.9481 1.39387 -18.4818 36.0291 -0.0336485 67.0723 0.716139 -3.2059 -52.3801 13.1391 9.77433 -94.0221 11.5134 2.57839 
